<svg width="465" height="459" xmlns="http://www.w3.org/2000/svg">

 <g>
  <title>background</title>
  <rect fill="none" id="canvas_background" height="461" width="467" y="-1" x="-1"/>
 </g>
 <g>
  <title>Layer 1</title>
  <path id="svg_11" d="m233,452.74l0,0l0,0l0,0l0,0c-1.76,0 -3.519,0 -5.27,0c1.751,0 3.51,0 5.27,0l0,0l0,0l0,0l0,0c1.759,0 3.52,0 5.27,0c-1.75,0 -3.511,0 -5.27,0z" fill="#FFFFFF"/>
  <g id="svg_14">
   <path id="svg_15" d="m-432.48,-22.438c-10.221,0 -20.257,3.651 -30.723,11.159l-35.618,26.051c-12.24,9.118 -18.4,20.135 -18.4,32.864c0,21.461 16.585,38.271 37.78,38.271c3.651,0 7.344,-0.551 10.914,-1.592l0,68.769c0,29.825 21.236,43.411 40.942,43.411c19.728,0 40.964,-13.586 40.964,-43.411l0,-126.236c0,-34.047 -23.032,-49.286 -45.859,-49.286l0,0z" fill="#ED3535"/>
   <path id="svg_16" d="m-451.31,5.306c7.834,-5.61 13.953,-7.323 18.829,-7.323c8.813,0 25.459,3.672 25.459,28.866l0,126.234c0,19.829 -13.953,23.012 -20.563,23.012c-6.609,0 -20.542,-3.183 -20.542,-23.012l0,-106.671l-18.605,14.423c-4.406,3.427 -9.037,4.671 -12.729,4.671c-9.771,0 -17.381,-7.589 -17.381,-17.87c0,-5.386 2.448,-10.751 10.037,-16.401l35.495,-25.929l0,0z" fill="#FFFFFF"/>
  </g>
  <g id="svg_17">
   <path id="svg_18" d="m-216.699,122.213l0.089,-0.066c12.994,-10.882 32.609,-27.306 32.609,-56.44c0,-35.617 -29.96,-60.504 -72.843,-60.504c-28.278,0 -53.066,12.578 -66.292,33.637c-1.325,2.099 -5.495,9.487 -5.495,18.404c0,18.001 15.034,32.091 34.22,32.091c13.155,0 25.344,-7.39 32.628,-19.749c1.199,-1.997 1.986,-1.997 3.007,-1.997l1.45,0.184c-0.466,1.294 -0.466,4.014 -7.089,9.69l-49.11,41.863c-12.707,10.982 -18.112,20.823 -18.112,32.981c0,16.372 12.636,32.896 40.878,32.896l73.828,0c24.251,0 35.294,-16.321 35.294,-31.503c-0.001,-15.113 -10.971,-31.386 -35.062,-31.487" fill="#ED3535"/>
   <path id="svg_19" d="m-290.76,168.41c-20.171,0 -22.962,-10.68 -22.962,-16.104c0,-5.643 1.503,-11.285 12.224,-20.555l49.165,-41.897c7.499,-6.448 12.438,-13.283 12.438,-21.932c0,-10.075 -7.517,-17.128 -18.882,-17.128c-8.591,0 -14.819,4.231 -18.667,10.68c-3.437,5.827 -9.45,11.066 -16.968,11.066c-9.664,0 -16.322,-6.835 -16.322,-15.298c0,-3.426 1.504,-7.456 3.007,-9.874c9.88,-15.718 28.779,-25.374 50.883,-25.374c27.903,0 54.946,13.888 54.946,43.711c0,20.336 -12.672,32.226 -26.614,43.896l-35.205,29.403l46.784,0c15.035,0 17.397,9.874 17.397,14.694c0,4.836 -2.362,14.71 -17.397,14.71l-73.827,0l0,0.002z" fill="#FFFFFF"/>
  </g>
  <g id="svg_23">
   <path id="svg_10" d="m64.486,353.283c3.519,-3.277 61.524,3.274 59.773,-19.642c-35.157,-42.536 -31.646,-132.539 -29.887,-122.727c1.76,9.818 131.838,75.281 140.627,78.541c8.789,-3.26 137.107,-68.723 140.627,-78.541c1.751,-9.813 5.27,80.188 -29.887,122.727c-1.75,21.271 54.504,16.363 59.773,19.642c3.52,3.274 -82.622,88.369 -165.245,101.457c161.728,-21.269 219.733,-147.271 219.733,-147.271s-70.313,24.545 -59.756,0c36.908,-83.457 -7.038,-180.001 -5.287,-175.095c1.769,4.906 -49.217,70.361 -63.275,67.093c-12.31,-1.639 -94.923,-188.183 -96.682,-193.097l0,0l0,0l0,0l0,0c-1.76,4.915 -84.373,191.458 -96.681,194.734c-14.06,3.268 -65.044,-62.187 -63.285,-67.092c1.76,-4.915 -42.186,91.638 -5.269,175.086c10.548,24.545 -59.765,0 -59.765,0s58.005,124.373 219.73,147.271c-82.622,-14.717 -168.754,-99.81 -165.244,-103.086z" fill="#FFFFFF"/>
   <path id="svg_12" d="m194.814,310.744c10.677,0 19.337,8.053 19.337,17.992c0,9.94 -8.661,17.993 -19.337,17.993c-10.678,0 -19.338,-8.053 -19.338,-17.993c0,-9.939 8.66,-17.992 19.338,-17.992z" fill="#FFFFFF"/>
   <path id="svg_13" d="m278.195,311.744c10.678,0 19.329,8.053 19.329,17.992c0,9.94 -8.651,17.993 -19.329,17.993c-10.68,0 -19.349,-8.053 -19.349,-17.993c0.002,-9.939 8.671,-17.992 19.349,-17.992z" fill="#FFFBFA"/>
  </g>
 </g>
</svg>
