<?xml version="1.0" encoding="utf-8"?>
<!-- Generator: Adobe Illustrator 15.0.0, SVG Export Plug-In . SVG Version: 6.00 Build 0)  -->
<!DOCTYPE svg PUBLIC "-//W3C//DTD SVG 1.1//EN" "http://www.w3.org/Graphics/SVG/1.1/DTD/svg11.dtd">
<svg version="1.1" id="图层_1" xmlns="http://www.w3.org/2000/svg" xmlns:xlink="http://www.w3.org/1999/xlink" x="0px" y="0px"
	 width="612px" height="792px" viewBox="0 0 612 792" enable-background="new 0 0 612 792" xml:space="preserve">
<path fill="#ED3535" d="M612,508.18c0,22.44-15.279,51-33.966,63.464L339.966,730.356c-18.687,12.442-49.246,12.442-67.932,0
	L33.966,571.644C15.28,559.18,0,530.64,0,508.18V283.82c0-22.44,15.28-51,33.966-63.464L272.034,61.644
	c18.686-12.444,49.245-12.444,67.932,0l238.068,158.712C596.721,232.82,612,261.36,612,283.82V508.18L612,508.18z"/>
<path fill="#ED3535" d="M306,72.701c8.752,0,17.014,2.163,22.644,5.916l238.068,158.712c13.036,8.69,24.888,30.845,24.888,46.492
	V508.18c0,15.646-11.852,37.802-24.866,46.491L328.664,713.383c-5.63,3.754-13.892,5.916-22.645,5.916
	c-8.751,0-17.014-2.162-22.644-5.916L45.309,554.671C32.252,545.979,20.4,523.826,20.4,508.18V283.82
	c0-15.646,11.853-37.801,24.868-46.492L283.335,78.617C288.986,74.863,297.249,72.701,306,72.701 M306,52.301
	c-12.301,0-24.623,3.121-33.966,9.343L33.966,220.356C15.28,232.82,0,261.36,0,283.82v224.36c0,22.439,15.28,51,33.966,63.464
	l238.068,158.714c9.343,6.222,21.644,9.343,33.966,9.343c12.321,0,24.623-3.121,33.966-9.343l238.068-158.714
	C596.721,559.18,612,530.64,612,508.18V283.82c0-22.44-15.279-51-33.966-63.464L339.966,61.644
	C330.623,55.422,318.301,52.301,306,52.301L306,52.301z"/>
<g>
	<path fill="#FCFCFC" d="M-93.152,175.854c0,0-92.696-150.432-225-143.629c-131.461-6.803-225,143.629-225,143.629
		c16.854-2.274,97.753-36.29,64.045,7.56c-32.865,43.842-6.74,184.444,0.843,171.601c7.583-12.859,71.628-82.403,80.056-55.192
		c7.583,24.202,65.729,149.683,78.368,176.894V482c0,0,0.844-0.752,0.844-2.259c0.844,1.507,0.844,2.259,0.844,2.259v-6.038
		c12.64-27.211,69.941-151.938,78.369-176.895c8.426-27.21,73.314,41.58,80.055,55.192c7.587,12.846,33.708-127.758,0.849-171.6
		C-190.062,139.563-110.007,173.58-93.152,175.854z M-179.108,129.741c-27.808,6.042-46.348,0-46.348,0
		s63.202,120.944,43.821,139.09c-17.701,1.507-51.408-56.695-64.05-47.63c-12.641,9.08-51.4,159.517-70.78,175.388
		c0,0.754,0,1.507,0,1.507s-0.844,0-0.844-0.753c0,0-0.844,0-0.844,0.753c0,0,0-0.753,0-1.507
		c-19.38-15.871-58.145-166.308-70.786-175.388c-12.64-9.817-46.348,49.137-64.045,47.63c-19.38-18.898,43.822-139.09,43.822-139.09
		s-18.541,6.042-46.348,0c-27.813-6.049,64.884-65.767,137.357-68.79l0,0h0.844h0.844l0,0
		C-243.997,63.974-151.302,123.692-179.108,129.741z"/>
	<path fill="#FFFFFF" d="M-352.704,127.471c11.637,0,21.067,8.46,21.067,18.898c0,10.439-9.431,18.898-21.067,18.898
		c-11.632,0-21.067-8.459-21.067-18.898C-373.771,135.931-364.335,127.471-352.704,127.471z"/>
	<path fill="#FCFCFC" d="M-277.705,127.471c11.637,0,21.067,8.46,21.067,18.898c0,10.439-9.431,18.898-21.067,18.898
		c-11.628,0-21.067-8.459-21.067-18.898C-298.772,135.931-289.333,127.471-277.705,127.471z"/>
</g>
<rect x="63" y="153" fill="none" width="486" height="486"/>
<g>
	<g>
		<path fill="#FFFFFF" d="M137.486,491.283c3.519-3.277,61.524,3.274,59.773-19.642c-35.157-42.536-31.646-132.539-29.887-122.727
			c1.76,9.818,131.838,75.281,140.627,78.541c8.789-3.26,137.107-68.723,140.627-78.541c1.751-9.813,5.27,80.188-29.887,122.727
			c-1.75,21.271,54.504,16.363,59.773,19.642c3.52,3.274-82.622,88.369-165.245,101.457C474.995,571.471,533,445.469,533,445.469
			s-70.313,24.545-59.756,0c36.908-83.457-7.038-180.001-5.287-175.095c1.769,4.906-49.217,70.361-63.275,67.093
			c-12.31-1.639-94.923-188.183-96.682-193.097l0,0l0,0l0,0l0,0c-1.76,4.915-84.373,191.458-96.681,194.734
			c-14.06,3.268-65.044-62.187-63.285-67.092c1.76-4.915-42.186,91.638-5.269,175.086c10.548,24.545-59.765,0-59.765,0
			s58.005,124.373,219.73,147.271C220.108,579.652,133.976,494.559,137.486,491.283z"/>
		<path fill="#FFFFFF" d="M308,592.74L308,592.74L308,592.74L308,592.74L308,592.74c-1.76,0-3.519,0-5.27,0
			C304.481,592.74,306.24,592.74,308,592.74L308,592.74L308,592.74L308,592.74L308,592.74c1.759,0,3.52,0,5.27,0
			C311.52,592.74,309.759,592.74,308,592.74z"/>
	</g>
	<path fill="#FFFFFF" d="M265.814,448.744c10.677,0,19.337,8.053,19.337,17.992c0,9.94-8.661,17.993-19.337,17.993
		c-10.678,0-19.338-8.053-19.338-17.993C246.476,456.797,255.136,448.744,265.814,448.744z"/>
	<path fill="#FFFBFA" d="M350.195,448.744c10.678,0,19.329,8.053,19.329,17.992c0,9.94-8.651,17.993-19.329,17.993
		c-10.68,0-19.349-8.053-19.349-17.993C330.848,456.797,339.517,448.744,350.195,448.744z"/>
</g>
<g>
	<path fill="#ED3535" d="M-432.48-22.438c-10.221,0-20.257,3.651-30.723,11.159l-35.618,26.051
		c-12.24,9.118-18.4,20.135-18.4,32.864c0,21.461,16.585,38.271,37.78,38.271c3.651,0,7.344-0.551,10.914-1.592v68.769
		c0,29.825,21.236,43.411,40.942,43.411c19.728,0,40.964-13.586,40.964-43.411V26.848C-386.621-7.199-409.653-22.438-432.48-22.438
		L-432.48-22.438z"/>
	<path fill="#FFFFFF" d="M-451.31,5.306c7.834-5.61,13.953-7.323,18.829-7.323c8.813,0,25.459,3.672,25.459,28.866v126.234
		c0,19.829-13.953,23.012-20.563,23.012c-6.609,0-20.542-3.183-20.542-23.012V46.412l-18.605,14.423
		c-4.406,3.427-9.037,4.671-12.729,4.671c-9.771,0-17.381-7.589-17.381-17.87c0-5.386,2.448-10.751,10.037-16.401L-451.31,5.306
		L-451.31,5.306z"/>
</g>
<g>
	<path fill="#ED3535" d="M-216.699,122.213l0.089-0.066c12.994-10.882,32.609-27.306,32.609-56.44
		c0-35.617-29.96-60.504-72.843-60.504c-28.278,0-53.066,12.578-66.292,33.637c-1.325,2.099-5.495,9.487-5.495,18.404
		c0,18.001,15.034,32.091,34.22,32.091c13.155,0,25.344-7.39,32.628-19.749c1.199-1.997,1.986-1.997,3.007-1.997l1.45,0.184
		c-0.466,1.294-0.466,4.014-7.089,9.69l-49.11,41.863c-12.707,10.982-18.112,20.823-18.112,32.981
		c0,16.372,12.636,32.896,40.878,32.896h73.828c24.251,0,35.294-16.321,35.294-31.503
		C-181.638,138.587-192.608,122.314-216.699,122.213"/>
	<path fill="#FFFFFF" d="M-290.76,168.41c-20.171,0-22.962-10.68-22.962-16.104c0-5.643,1.503-11.285,12.224-20.555l49.165-41.897
		c7.499-6.448,12.438-13.283,12.438-21.932c0-10.075-7.517-17.128-18.882-17.128c-8.591,0-14.819,4.231-18.667,10.68
		c-3.437,5.827-9.45,11.066-16.968,11.066c-9.664,0-16.322-6.835-16.322-15.298c0-3.426,1.504-7.456,3.007-9.874
		c9.88-15.718,28.779-25.374,50.883-25.374c27.903,0,54.946,13.888,54.946,43.711c0,20.336-12.672,32.226-26.614,43.896
		l-35.205,29.403h46.784c15.035,0,17.397,9.874,17.397,14.694c0,4.836-2.362,14.71-17.397,14.71h-73.827V168.41z"/>
</g>
<g display="none">
	<path display="inline" fill="#ED3535" d="M599.048,585.721c0-40.819-33.436-69.318-81.313-69.318
		c-25.889,0-50.245,9.669-65.179,25.907c-5.834,6.364-12.464,15.442-12.464,29.457c0,19.91,14.912,35.741,34.598,37.599
		c-2.224,4.937-3.283,10.28-3.283,15.504c0,6.589,1.692,13.382,5.202,19.298l-2.429-0.081c-21.502,0-39.005,17.381-39.005,38.76
		c0,11.628,4.733,22.257,14.076,31.56c16.892,16.586,40.433,25.296,68.238,25.296c42.595,0,85.721-25.907,85.721-75.438
		c0-15.912-6.242-30.601-16.769-41.678C594.438,612.465,599.048,599.653,599.048,585.721"/>
	<path display="inline" fill="#FFFFFF" d="M491.806,624.868c0-5.142,2.447-15.912,18.096-15.912
		c20.563,0,26.928-9.527,26.928-19.563c0-12.484-10.526-19.095-21.787-19.095c-8.568,0-14.423,3.428-20.543,10.771
		c-3.672,4.405-8.323,8.078-15.912,8.078c-10.037,0-18.095-7.345-18.095-17.382c0-5.63,1.959-10.036,7.1-15.646
		c11.24-12.24,30.335-19.319,50.144-19.319c30.601,0,60.915,15.647,60.915,48.92c0,19.095-12.221,33.272-29.111,37.68v0.733
		c19.829,4.631,33.271,20.787,33.271,40.127c0,37.923-33.517,55.039-65.319,55.039c-22.013,0-40.617-6.365-53.815-19.318
		c-5.631-5.631-8.078-11.017-8.078-17.137c0-10.525,8.567-18.359,18.584-18.359c6.365,0,10.771,2.958,18.115,10.281
		c7.1,7.1,14.178,10.036,23.235,10.036c11.751,0,25.193-5.875,25.193-22.03c0-12.221-10.017-21.769-30.823-21.769
		C494.253,641.004,491.806,630.254,491.806,624.868"/>
</g>
</svg>
